<?xml version="1.0" encoding="utf-8"?>
<!-- Generator: Adobe Illustrator 27.9.4, SVG Export Plug-In . SVG Version: 9.03 Build 54784)  -->
<svg version="1.1" id="Layer_1" xmlns="http://www.w3.org/2000/svg" xmlns:xlink="http://www.w3.org/1999/xlink" x="0px" y="0px"
	 viewBox="0 0 340.2 340.2" style="enable-background:new 0 0 340.2 340.2;" xml:space="preserve">
<style type="text/css">
	.st0{fill:none;stroke:#360094;stroke-width:13.3734;stroke-miterlimit:10;}
</style>
<polyline class="st0" points="34.5,59.3 34.5,325.7 308.9,325.7 308.9,88.1 "/>
<polyline class="st0" points="8.5,50.4 100,16 333.7,79.4 "/>
<path d="M112.3,315.8c-21,0-37.3-6.7-49-20.2c-11.7-13.5-17.5-32.7-17.5-57.5c0-28.9,7.6-51.1,22.9-66.5s36.9-23.2,65-23.2
	c10.8,0,20.1,0.7,28,2.2c7.9,1.5,15.9,3.7,23.9,6.8l-8.2,51.4c-7.9-2.4-15.1-3.9-21.4-4.3c-6.3-0.4-13-0.6-19.9-0.6
	c-26.1,0-39.1,9.7-39.1,29.2c0,8.8,2.4,15.5,7.1,20.1c4.7,4.6,11.6,6.9,20.7,6.9c10.9,0,20.1-2.7,27.4-8s12.8-12.2,16.5-20.5
	c3.7-8.3,5.5-16.8,5.5-25.6v-16.1l7.1,66.3h-15.8l6.5-7.8c-0.4,15-3,27.4-7.8,37.4c-4.8,10-11.6,17.5-20.4,22.4
	S124.5,315.8,112.3,315.8z M179.2,313.4l-4.3-76.5l-0.7-33.6v-50.4c0-13.8-4.5-23.9-13.5-30.3s-22.4-10-40.1-10.6l-50.5-1.7l3.7-60
	l43,0.7c35.8,0.6,62.3,9.9,79.7,27.7s26.1,43.7,26.1,77.9V252l27.4,5.4v53.6L179.2,313.4z"/>
<path d="M276.5,313.4c-5.3,0-9.8-1.9-13.6-5.6c-3.8-3.7-5.7-8.2-5.7-13.5c0-5.3,1.9-9.8,5.7-13.6c3.8-3.8,8.3-5.7,13.6-5.7
	s9.8,1.9,13.6,5.7c3.8,3.8,5.7,8.3,5.7,13.6c0,5.3-1.9,9.8-5.7,13.5C286.3,311.5,281.7,313.4,276.5,313.4z"/>
</svg>
